<?xml version="1.0" encoding="UTF-8" standalone="no"?>
<!-- Created with Inkscape (http://www.inkscape.org/) -->

<svg
   xmlns:dc="http://purl.org/dc/elements/1.1/"
   xmlns:cc="http://creativecommons.org/ns#"
   xmlns:rdf="http://www.w3.org/1999/02/22-rdf-syntax-ns#"
   xmlns:svg="http://www.w3.org/2000/svg"
   xmlns="http://www.w3.org/2000/svg"
   version="1.1"
   width="800"
   height="260"
   id="svg2">
  <defs
     id="defs4" />
  <metadata
     id="metadata7">
    <rdf:RDF>
      <cc:Work
         rdf:about="">
        <dc:format>image/svg+xml</dc:format>
        <dc:type
           rdf:resource="http://purl.org/dc/dcmitype/StillImage" />
        <dc:title></dc:title>
      </cc:Work>
    </rdf:RDF>
  </metadata>
  <g
     transform="translate(0,-792)"
     id="layer1">
    <rect
       width="789"
       height="246.4"
       x="7.832"
       y="800.3"
       id="rect3837"
       style="fill:#1d5f6d;fill-opacity:1;stroke:none" />
    <g
       transform="matrix(0.8176,0,0,0.7303,196.4,531.7)"
       id="text2996"
       style="font-size:37.236px;font-style:normal;font-variant:normal;font-weight:normal;font-stretch:normal;text-align:start;line-height:100%;letter-spacing:0px;word-spacing:0px;writing-mode:lr-tb;text-anchor:start;fill:#ffffff;fill-opacity:1;stroke:none;font-family:Century;-inkscape-font-specification:Century">
      <path
         d="m 690.3,398.7 13.9,0 c 2.7,0 4.8,0.6 6.2,1.9 1.5,1.2 2.3,2.8 2.3,4.8 0,1.2 -0.3,2.2 -0.9,3.1 -0.6,1 -1.4,1.7 -2.6,2.3 -1.1,0.5 -2.8,0.9 -5.2,1.2 1.8,0.4 2.9,0.9 3.6,1.3 0.7,0.5 1.2,1.1 1.6,1.8 0.4,0.7 0.8,2.2 1.3,4.4 0.4,1.6 0.8,2.7 1.2,3.3 0.3,0.4 0.6,0.6 1,0.6 0.4,0 0.7,-0.2 1.1,-0.8 0.3,-0.5 0.5,-1.5 0.5,-2.9 l 1.3,0 c -0.2,4.1 -1.8,6.2 -4.6,6.2 -0.9,0 -1.6,-0.2 -2.3,-0.7 -0.6,-0.4 -1.1,-1.1 -1.4,-2 -0.3,-0.6 -0.6,-2.3 -0.9,-5.1 -0.2,-1.6 -0.5,-2.8 -0.9,-3.5 -0.4,-0.6 -1,-1.2 -1.8,-1.6 -0.8,-0.4 -1.8,-0.6 -3,-0.6 l -2.2,0 0,10.6 c 0,0.4 0.1,0.7 0.3,0.9 0.3,0.2 0.8,0.3 1.4,0.3 l 2.6,0 0,1.4 -12.5,0 0,-1.4 2.6,0 c 0.6,0 1,-0.1 1.3,-0.3 0.3,-0.2 0.4,-0.5 0.4,-0.9 l 0,-21.5 c 0,-0.5 -0.1,-0.8 -0.4,-1.1 -0.3,-0.2 -0.7,-0.3 -1.3,-0.3 l -2.6,0 z m 8.2,12.4 3.2,0 c 2.1,0 3.8,-0.4 5,-1.2 1.2,-0.8 1.8,-2.3 1.8,-4.3 0,-1.4 -0.2,-2.6 -0.7,-3.4 -0.4,-0.8 -1,-1.4 -1.8,-1.7 -0.7,-0.3 -2.2,-0.4 -4.3,-0.4 -1.5,0 -2.4,0.1 -2.7,0.3 -0.3,0.2 -0.5,0.5 -0.5,1 z"
         id="path3842"
         style="fill:#ffffff" />
    </g>
    <path
       d="m 765.7,389.1 a 22.5,22.5 0 1 1 -45,0 22.5,22.5 0 1 1 45,0 z"
       transform="matrix(0.7487,0,0,0.7487,214.1,541.5)"
       id="path3000"
       style="fill:none;stroke:#ffffff;stroke-width:3.0963;stroke-miterlimit:4;stroke-dasharray:none" />
    <path
       d="m 207.9,843.1 -14.6,38.5 -96.86,0 c -20.53,0 -20.76,27 0,27 l 56.66,0 c 72.2,-0.1 72.2,102.4 0,102.4 l -110.8,0 15.22,-37.6 97.08,0 c 20.9,0 21.4,-27.3 0,-27.3 l -55.99,0 c -73.16,0 -73.39,-103 0,-103 z"
       id="path3782"
       style="fill:#ffffff;stroke:none" />
    <path
       d="m 212,843.1 -14.6,38.5 46.1,0 0,129.4 37.9,0 0,-129.4 36.4,0 14.6,-38.5 z"
       id="path3792"
       style="fill:#ffffff;stroke:none" />
    <path
       d="m 335.4,843.1 -14.6,38.5 108.5,0 c 7.3,0 13.5,4.4 13.5,12.6 l 0,14.4 -85.9,0 c -66.3,0 -66.6,102.4 0,102.4 l 123.7,0 0,-117.4 c 0,-24.3 -20.4,-50.5 -53.3,-50.5 z m 23.5,103 83.9,0 0,27.3 -83.9,0 c -19.6,0 -19,-27.3 0,-27.3 z"
       id="path3794"
       style="fill:#ffffff;stroke:none" />
    <path
       d="m 619.7,843.1 -14.6,38.5 108.5,0 c 7.4,0 13.6,4.4 13.6,12.6 l 0,14.4 -85.9,0 c -66.3,0 -66.6,102.4 0,102.4 l 123.6,0 0,-117.4 c 0,-24.3 -20.4,-50.5 -53.2,-50.5 z m 23.5,103 84,0 0,27.3 -84,0 c -19.5,0 -19,-27.3 0,-27.3 z"
       id="path3794-5"
       style="fill:#ffffff;stroke:none" />
    <path
       d="m 495.6,843.1 -14.6,38.5 46.1,0 0,129.4 37.8,0 0,-129.4 36.4,0 14.7,-38.5 z"
       id="path3792-3"
       style="fill:#ffffff;stroke:none" />
    <rect
       width="2.705"
       height="3.405"
       x="796.9"
       y="1047"
       id="rect3839"
       style="fill:#ff0000;fill-opacity:1;fill-rule:nonzero;stroke:none" />
  </g>
</svg>
